<svg id="Layer_1" data-name="Layer 1" xmlns="http://www.w3.org/2000/svg" xmlns:xlink="http://www.w3.org/1999/xlink" viewBox="0 0 174 200"><defs><style>.cls-1{fill:url(#linear-gradient);}.cls-2{fill:url(#linear-gradient-2);}.cls-3{fill:#244f72;}.cls-4{fill:url(#linear-gradient-3);}.cls-5{fill:url(#linear-gradient-4);}.cls-6{fill:url(#linear-gradient-5);}.cls-7{fill:url(#linear-gradient-6);}</style><linearGradient id="linear-gradient" x1="48.03" y1="47.5" x2="177.93" y2="122.5" gradientUnits="userSpaceOnUse"><stop offset="0" stop-color="#ffd43b"/><stop offset="1" stop-color="#ffe873"/></linearGradient><linearGradient id="linear-gradient-2" x1="13.39" y1="67.5" x2="143.29" y2="142.5" xlink:href="#linear-gradient"/><linearGradient id="linear-gradient-3" x1="0.4" y1="125" x2="87" y2="125" gradientUnits="userSpaceOnUse"><stop offset="0" stop-color="#306998"/><stop offset="1" stop-color="#4b8bbe"/></linearGradient><linearGradient id="linear-gradient-4" x1="169.27" y1="57.5" x2="74.01" y2="2.5" gradientUnits="userSpaceOnUse"><stop offset="0" stop-color="#6fa2cb"/><stop offset="1" stop-color="#4b8bbe"/></linearGradient><linearGradient id="linear-gradient-5" x1="134.63" y1="77.5" x2="39.37" y2="22.5" xlink:href="#linear-gradient-4"/><linearGradient id="linear-gradient-6" x1="99.99" y1="97.5" x2="4.73" y2="42.5" xlink:href="#linear-gradient-4"/></defs><polygon class="cls-1" points="156.28 160 69.68 110 69.68 10 156.28 60 156.28 160"/><polygon class="cls-2" points="121.64 180 35.04 130 35.04 30 121.64 80 121.64 180"/><polygon class="cls-3" points="156.28 160 156.28 60 173.6 50 173.6 150 156.28 160"/><polygon class="cls-3" points="121.64 180 121.64 80 138.96 70 138.96 170 121.64 180"/><polygon class="cls-3" points="87 200 87 100 104.32 90 104.32 190 87 200"/><polygon class="cls-4" points="87 200 0.4 150 0.4 50 87 100 87 200"/><polygon class="cls-5" points="69.68 10 156.28 60 173.6 50 87 0 69.68 10"/><polygon class="cls-6" points="35.04 30 121.64 80 138.96 70 52.36 20 35.04 30"/><polygon class="cls-7" points="0.4 50 87 100 104.32 90 17.72 40 0.4 50"/></svg>
