<svg width="760" height="200" viewBox="0 0 760 200" fill="none" xmlns="http://www.w3.org/2000/svg">
<g clip-path="url(#clip0_8_3)">
<path d="M283.43 81.53C283.43 109.65 273.53 112.29 243.56 112.29H226.94V147.92C226.94 149.24 226.54 149.64 225.22 149.64H218.49C217.17 149.64 216.77 149.24 216.77 147.92V52.63C216.77 51.31 217.17 51.04 218.49 50.91C226.8 50.38 237.36 50.25 243.56 50.25C273.53 50.25 283.43 54.08 283.43 81.53ZM226.94 59.1V103.31H242.94C266.94 103.31 273.42 102.39 273.42 81.67C273.42 61.21 266.96 59.1 242.94 59.1H226.94Z" fill="white"/>
<path d="M353.91 78.23C354.145 78.2109 354.381 78.244 354.602 78.3269C354.823 78.4099 355.023 78.5406 355.187 78.7097C355.351 78.8788 355.476 79.0822 355.553 79.3053C355.63 79.5283 355.656 79.7656 355.63 80V144C355.5 169.35 350.35 176.21 326.2 176.21C320.027 176.26 313.857 175.953 307.72 175.29C307.492 175.279 307.269 175.222 307.064 175.121C306.858 175.021 306.676 174.88 306.527 174.707C306.378 174.534 306.266 174.332 306.198 174.114C306.13 173.897 306.107 173.667 306.13 173.44V169.35C306.1 169.134 306.121 168.914 306.19 168.708C306.259 168.501 306.376 168.314 306.53 168.16C306.684 168.006 306.871 167.889 307.078 167.82C307.284 167.751 307.504 167.73 307.72 167.76H326.2C342.43 167.76 346 163.67 346 150.34V149.28C339.74 150.085 333.431 150.44 327.12 150.34C302.57 150.34 298.12 143.08 298.12 113.91V80C298.086 79.7776 298.103 79.5505 298.169 79.3355C298.235 79.1205 298.349 78.9231 298.502 78.758C298.654 78.5928 298.842 78.4641 299.051 78.3814C299.261 78.2986 299.486 78.264 299.71 78.28H305.91C306.14 78.2573 306.372 78.2865 306.589 78.3656C306.805 78.4446 307.002 78.5713 307.163 78.7365C307.324 78.9016 307.447 79.1009 307.52 79.3196C307.594 79.5383 307.618 79.7709 307.59 80V113.66C307.59 136.23 309.7 141.9 327.12 141.9C333.434 141.909 339.741 141.498 346 140.67V80C345.98 79.77 346.011 79.5386 346.09 79.3217C346.169 79.1048 346.294 78.9077 346.457 78.744C346.619 78.5803 346.816 78.4541 347.032 78.3739C347.249 78.2938 347.48 78.2618 347.71 78.28L353.91 78.23Z" fill="white"/>
<path d="M444.86 77.57C444.86 89.57 441.69 97.51 433.77 99.48V99.88C444.86 101.99 447.5 112.55 447.5 123.51C447.5 145.68 435.23 150.3 415.43 150.3C409.22 150.3 387.05 150.04 378.73 149.64C377.41 149.51 377.02 149.24 377.02 147.92V52.63C377.02 51.31 377.41 51.04 378.73 50.91C387.05 50.38 405 50.25 411.07 50.25C432.85 50.25 444.86 55.93 444.86 77.57ZM387.18 59.1V95.92H408.18C427.32 95.92 434.84 94.86 434.84 78.23C434.84 62.23 426.66 59.1 410.42 59.1H387.18ZM387.18 104.37V141.46H416C430.13 141.46 437.52 138.46 437.52 123.46C437.52 107.46 429.73 104.32 417.33 104.32L387.18 104.37Z" fill="white"/>
<path d="M514.56 98V144.2C514.56 145.25 514.69 146.71 512.18 147.63C508.09 149.21 495.82 150.27 484.07 150.27C466.78 150.27 459.91 145.91 459.91 129.42C459.91 114.9 467.31 109.88 481.91 109.88H505V99.48C505 89.59 498.4 86.02 485.47 86.02H467.7C466.38 86.02 465.99 85.63 465.99 84.31V80.61C465.99 79.29 466.38 79.03 467.57 78.76C473.516 77.9189 479.515 77.5211 485.52 77.57C503.73 77.57 514.56 82.72 514.56 98ZM482 118.23C473.42 118.23 469.46 121.13 469.46 129.45C469.46 139.21 473.81 141.98 486.22 141.98C490.31 141.98 499.55 141.72 505.09 140.27V118.27L482 118.23Z" fill="white"/>
<path d="M627.81 50.91C628.068 50.8758 628.33 50.8989 628.578 50.9776C628.826 51.0563 629.053 51.1887 629.244 51.3653C629.435 51.5419 629.585 51.7585 629.683 51.9995C629.781 52.2406 629.824 52.5003 629.81 52.76L638 147.92C638.031 148.152 638.008 148.389 637.933 148.611C637.859 148.833 637.734 149.035 637.568 149.201C637.403 149.367 637.202 149.493 636.98 149.569C636.759 149.645 636.522 149.67 636.29 149.64H629.55C628.55 149.64 627.97 149.11 627.84 147.92L621.5 67.54L590.85 145C590.688 145.493 590.366 145.918 589.934 146.206C589.503 146.494 588.987 146.629 588.47 146.59H581.35C580.838 146.622 580.329 146.484 579.904 146.196C579.478 145.908 579.161 145.488 579 145L548.35 67.54L542 147.92C541.86 149.11 541.34 149.64 540.28 149.64H533.55C533.317 149.669 533.081 149.645 532.859 149.569C532.637 149.493 532.435 149.367 532.269 149.201C532.103 149.035 531.977 148.833 531.901 148.611C531.825 148.389 531.801 148.153 531.83 147.92L540 52.76C539.986 52.5003 540.029 52.2406 540.127 51.9995C540.225 51.7585 540.375 51.5419 540.566 51.3653C540.757 51.1887 540.984 51.0563 541.232 50.9776C541.48 50.8989 541.742 50.8758 542 50.91H549.39C552.16 50.91 552.82 52.23 554.27 55.8L584.89 135.12L615.53 55.8C616.98 52.23 617.64 50.91 620.42 50.91H627.81Z" fill="white"/>
<path d="M749.78 50.91C750.038 50.8758 750.3 50.8989 750.548 50.9776C750.796 51.0563 751.024 51.1887 751.214 51.3653C751.405 51.5419 751.555 51.7585 751.653 51.9995C751.751 52.2406 751.794 52.5003 751.78 52.76L759.96 147.92C759.989 148.153 759.965 148.389 759.889 148.611C759.813 148.833 759.687 149.035 759.521 149.201C759.355 149.367 759.153 149.493 758.931 149.569C758.709 149.645 758.473 149.669 758.24 149.64H751.51C750.51 149.64 749.93 149.11 749.8 147.92L743.46 67.54L712.82 145C712.658 145.493 712.336 145.918 711.904 146.206C711.473 146.494 710.957 146.629 710.44 146.59H703.32C702.803 146.629 702.287 146.494 701.856 146.206C701.424 145.918 701.102 145.493 700.94 145L670.32 67.54L664 147.92C663.87 149.11 663.34 149.64 662.29 149.64H655.56C655.327 149.669 655.091 149.645 654.869 149.569C654.647 149.493 654.445 149.367 654.279 149.201C654.113 149.035 653.987 148.833 653.911 148.611C653.835 148.389 653.811 148.153 653.84 147.92L662 52.76C661.986 52.5003 662.029 52.2406 662.127 51.9995C662.225 51.7585 662.375 51.5419 662.566 51.3653C662.757 51.1887 662.984 51.0563 663.232 50.9776C663.48 50.8989 663.742 50.8758 664 50.91H671.39C674.17 50.91 674.83 52.23 676.28 55.8L706.9 135.12L737.5 55.8C738.95 52.23 739.61 50.91 742.38 50.91H749.78Z" fill="white"/>
<path d="M155.94 160L69.34 110V10L155.94 60V160Z" fill="url(#paint0_linear_8_3)"/>
<path d="M121.3 180L34.7 130V30L121.3 80V180Z" fill="url(#paint1_linear_8_3)"/>
<path d="M155.94 160V60L173.27 50V150L155.94 160Z" fill="#244F72"/>
<path d="M121.3 180V80L138.63 70V170L121.3 180Z" fill="#244F72"/>
<path d="M86.66 200V100L103.98 90V190L86.66 200Z" fill="#244F72"/>
<path d="M86.66 200L0.0599976 150V50L86.66 100V200Z" fill="url(#paint2_linear_8_3)"/>
<path d="M69.34 10L155.94 60L173.27 50L86.66 0L69.34 10Z" fill="url(#paint3_linear_8_3)"/>
<path d="M34.7 30L121.3 80L138.63 70L52.02 20L34.7 30Z" fill="url(#paint4_linear_8_3)"/>
<path d="M0.0599976 50L86.66 100L103.98 90L17.38 40L0.0599976 50Z" fill="url(#paint5_linear_8_3)"/>
</g>
<defs>
<linearGradient id="paint0_linear_8_3" x1="47.69" y1="47.5" x2="177.6" y2="122.5" gradientUnits="userSpaceOnUse">
<stop stop-color="#FFD43B"/>
<stop offset="1" stop-color="#FFE873"/>
</linearGradient>
<linearGradient id="paint1_linear_8_3" x1="13.05" y1="67.5" x2="142.95" y2="142.5" gradientUnits="userSpaceOnUse">
<stop stop-color="#FFD43B"/>
<stop offset="1" stop-color="#FFE873"/>
</linearGradient>
<linearGradient id="paint2_linear_8_3" x1="0.0599976" y1="125" x2="86.66" y2="125" gradientUnits="userSpaceOnUse">
<stop stop-color="#306998"/>
<stop offset="1" stop-color="#4B8BBE"/>
</linearGradient>
<linearGradient id="paint3_linear_8_3" x1="168.94" y1="57.5" x2="73.67" y2="2.49999" gradientUnits="userSpaceOnUse">
<stop stop-color="#6FA2CB"/>
<stop offset="1" stop-color="#4B8BBE"/>
</linearGradient>
<linearGradient id="paint4_linear_8_3" x1="134.29" y1="77.5" x2="39.03" y2="22.5" gradientUnits="userSpaceOnUse">
<stop stop-color="#6FA2CB"/>
<stop offset="1" stop-color="#4B8BBE"/>
</linearGradient>
<linearGradient id="paint5_linear_8_3" x1="99.65" y1="97.5" x2="4.38999" y2="42.5" gradientUnits="userSpaceOnUse">
<stop stop-color="#6FA2CB"/>
<stop offset="1" stop-color="#4B8BBE"/>
</linearGradient>
<clipPath id="clip0_8_3">
<rect width="760" height="200" fill="white"/>
</clipPath>
</defs>
</svg>
