<svg id="Layer_1" data-name="Layer 1" xmlns="http://www.w3.org/2000/svg" xmlns:xlink="http://www.w3.org/1999/xlink" viewBox="0 0 760 200"><defs><style>.cls-1{fill:#646464;}.cls-2{fill:url(#linear-gradient);}.cls-3{fill:url(#linear-gradient-2);}.cls-4{fill:#244f72;}.cls-5{fill:url(#linear-gradient-3);}.cls-6{fill:url(#linear-gradient-4);}.cls-7{fill:url(#linear-gradient-5);}.cls-8{fill:url(#linear-gradient-6);}</style><linearGradient id="linear-gradient" x1="47.69" y1="47.5" x2="177.6" y2="122.5" gradientUnits="userSpaceOnUse"><stop offset="0" stop-color="#ffd43b"/><stop offset="1" stop-color="#ffe873"/></linearGradient><linearGradient id="linear-gradient-2" x1="13.05" y1="67.5" x2="142.95" y2="142.5" xlink:href="#linear-gradient"/><linearGradient id="linear-gradient-3" x1="0.06" y1="125" x2="86.66" y2="125" gradientUnits="userSpaceOnUse"><stop offset="0" stop-color="#306998"/><stop offset="1" stop-color="#4b8bbe"/></linearGradient><linearGradient id="linear-gradient-4" x1="168.94" y1="57.5" x2="73.67" y2="2.5" gradientUnits="userSpaceOnUse"><stop offset="0" stop-color="#6fa2cb"/><stop offset="1" stop-color="#4b8bbe"/></linearGradient><linearGradient id="linear-gradient-5" x1="134.29" y1="77.5" x2="39.03" y2="22.5" xlink:href="#linear-gradient-4"/><linearGradient id="linear-gradient-6" x1="99.65" y1="97.5" x2="4.39" y2="42.5" xlink:href="#linear-gradient-4"/></defs><path class="cls-1" d="M283.43,81.53c0,28.12-9.9,30.76-39.87,30.76H226.94v35.63c0,1.32-.4,1.72-1.72,1.72h-6.73c-1.32,0-1.72-.4-1.72-1.72V52.63c0-1.32.4-1.59,1.72-1.72,8.31-.53,18.87-.66,25.07-.66C273.53,50.25,283.43,54.08,283.43,81.53ZM226.94,59.1v44.21h16c24,0,30.48-.92,30.48-21.64,0-20.46-6.46-22.57-30.48-22.57Z"/><path class="cls-1" d="M353.91,78.23A1.6,1.6,0,0,1,355.63,80v64c-.13,25.35-5.28,32.21-29.43,32.21a160,160,0,0,1-18.48-.92,1.68,1.68,0,0,1-1.59-1.85v-4.09a1.41,1.41,0,0,1,1.59-1.59H326.2c16.23,0,19.8-4.09,19.8-17.42v-1.06a131.67,131.67,0,0,1-18.88,1.06c-24.55,0-29-7.26-29-36.43V80a1.5,1.5,0,0,1,1.59-1.72h6.2A1.54,1.54,0,0,1,307.59,80v33.66c0,22.57,2.11,28.24,19.53,28.24A142.54,142.54,0,0,0,346,140.67V80a1.59,1.59,0,0,1,1.71-1.72Z"/><path class="cls-1" d="M444.86,77.57c0,12-3.17,19.94-11.09,21.91v.4c11.09,2.11,13.73,12.67,13.73,23.63,0,22.17-12.27,26.79-32.07,26.79-6.21,0-28.38-.26-36.7-.66-1.32-.13-1.71-.4-1.71-1.72V52.63c0-1.32.39-1.59,1.71-1.72,8.32-.53,26.27-.66,32.34-.66C432.85,50.25,444.86,55.93,444.86,77.57ZM387.18,59.1V95.92h21c19.14,0,26.66-1.06,26.66-17.69,0-16-8.18-19.13-24.42-19.13Zm0,45.27v37.09H416c14.13,0,21.52-3,21.52-18,0-16-7.79-19.14-20.19-19.14Z"/><path class="cls-1" d="M514.56,98v46.2c0,1.05.13,2.51-2.38,3.43-4.09,1.58-16.36,2.64-28.11,2.64-17.29,0-24.16-4.36-24.16-20.85,0-14.52,7.4-19.54,22-19.54h23.09V99.48c0-9.89-6.6-13.46-19.53-13.46H467.7c-1.32,0-1.71-.39-1.71-1.71v-3.7c0-1.32.39-1.58,1.58-1.85a121.11,121.11,0,0,1,17.95-1.19C503.73,77.57,514.56,82.72,514.56,98ZM482,118.23c-8.58,0-12.54,2.9-12.54,11.22,0,9.76,4.35,12.53,16.76,12.53,4.09,0,13.33-.26,18.87-1.71v-22Z"/><path class="cls-1" d="M627.81,50.91a1.77,1.77,0,0,1,2,1.85L638,147.92a1.53,1.53,0,0,1-1.71,1.72h-6.74c-1,0-1.58-.53-1.71-1.72l-6.34-80.38L590.85,145a2.32,2.32,0,0,1-2.38,1.59h-7.12A2.32,2.32,0,0,1,579,145L548.35,67.54,542,147.92c-.14,1.19-.66,1.72-1.72,1.72h-6.73a1.54,1.54,0,0,1-1.72-1.72L540,52.76a1.77,1.77,0,0,1,2-1.85h7.39c2.77,0,3.43,1.32,4.88,4.89l30.62,79.32L615.53,55.8c1.45-3.57,2.11-4.89,4.89-4.89Z"/><path class="cls-1" d="M749.78,50.91a1.77,1.77,0,0,1,2,1.85l8.18,95.16a1.54,1.54,0,0,1-1.72,1.72h-6.73c-1,0-1.58-.53-1.71-1.72l-6.34-80.38L712.82,145a2.32,2.32,0,0,1-2.38,1.59h-7.12a2.32,2.32,0,0,1-2.38-1.59L670.32,67.54,664,147.92c-.13,1.19-.66,1.72-1.71,1.72h-6.73a1.54,1.54,0,0,1-1.72-1.72L662,52.76a1.77,1.77,0,0,1,2-1.85h7.39c2.78,0,3.44,1.32,4.89,4.89l30.62,79.32L737.5,55.8c1.45-3.57,2.11-4.89,4.88-4.89Z"/><polygon class="cls-2" points="155.94 160 69.34 110 69.34 10 155.94 60 155.94 160"/><polygon class="cls-3" points="121.3 180 34.7 130 34.7 30 121.3 80 121.3 180"/><polygon class="cls-4" points="155.94 160 155.94 60 173.27 50 173.27 150 155.94 160"/><polygon class="cls-4" points="121.3 180 121.3 80 138.63 70 138.63 170 121.3 180"/><polygon class="cls-4" points="86.66 200 86.66 100 103.98 90 103.98 190 86.66 200"/><polygon class="cls-5" points="86.66 200 0.06 150 0.06 50 86.66 100 86.66 200"/><polygon class="cls-6" points="69.34 10 155.94 60 173.27 50 86.66 0 69.34 10"/><polygon class="cls-7" points="34.7 30 121.3 80 138.63 70 52.02 20 34.7 30"/><polygon class="cls-8" points="0.06 50 86.66 100 103.98 90 17.38 40 0.06 50"/></svg>
